<svg xmlns="http://www.w3.org/2000/svg" width="300" height="260" viewBox="0 0 300 260">
  <defs>
    <radialGradient id="wgCurl" cx="0.36" cy="0.30" r="0.85">
      <stop offset="0" stop-color="#7d562f"/>
      <stop offset="0.55" stop-color="#4a3119"/>
      <stop offset="1" stop-color="#291a0b"/>
    </radialGradient>
  </defs>
  <!-- base hair mass (curved silhouette) prevents gaps between curls -->
  <path d="M150 6 Q40 6 28 112 Q20 184 48 250 Q66 196 64 150 Q70 124 92 108
           Q122 92 150 94 Q178 92 208 108 Q230 124 236 150 Q234 196 252 250
           Q280 184 272 112 Q260 6 150 6 Z" fill="#34220f"/>
  <!-- bubbly perm curls -->
  <g fill="url(#wgCurl)" stroke="#241607" stroke-width="1.2">
    <circle cx="150" cy="18" r="21"/>
    <circle cx="118" cy="22" r="18"/><circle cx="182" cy="22" r="18"/>
    <circle cx="88" cy="32" r="18"/><circle cx="212" cy="32" r="18"/>
    <circle cx="150" cy="42" r="18"/>
    <circle cx="120" cy="48" r="16"/><circle cx="180" cy="48" r="16"/>
    <circle cx="60" cy="48" r="17"/><circle cx="240" cy="48" r="17"/>
    <circle cx="96" cy="56" r="16"/><circle cx="204" cy="56" r="16"/>
    <circle cx="150" cy="72" r="15"/>
    <circle cx="128" cy="74" r="14"/><circle cx="172" cy="74" r="14"/>
    <circle cx="108" cy="84" r="13"/><circle cx="192" cy="84" r="13"/>
    <circle cx="46" cy="74" r="16"/><circle cx="254" cy="74" r="16"/>
    <circle cx="50" cy="102" r="16"/><circle cx="250" cy="102" r="16"/>
    <circle cx="52" cy="130" r="16"/><circle cx="248" cy="130" r="16"/>
    <circle cx="54" cy="158" r="16"/><circle cx="246" cy="158" r="16"/>
    <circle cx="56" cy="186" r="15"/><circle cx="244" cy="186" r="15"/>
    <circle cx="58" cy="213" r="15"/><circle cx="242" cy="213" r="15"/>
    <circle cx="56" cy="238" r="14"/><circle cx="244" cy="238" r="14"/>
    <circle cx="80" cy="98" r="15"/><circle cx="220" cy="98" r="15"/>
    <circle cx="82" cy="126" r="14"/><circle cx="218" cy="126" r="14"/>
    <circle cx="84" cy="154" r="14"/><circle cx="216" cy="154" r="14"/>
    <circle cx="86" cy="182" r="13"/><circle cx="214" cy="182" r="13"/>
  </g>
  <!-- highlights -->
  <g fill="#a06f3e" opacity="0.55">
    <circle cx="144" cy="13" r="6"/><circle cx="112" cy="17" r="5"/><circle cx="176" cy="17" r="5"/>
    <circle cx="82" cy="27" r="5"/><circle cx="206" cy="27" r="5"/>
    <circle cx="54" cy="43" r="5"/><circle cx="234" cy="43" r="5"/>
    <circle cx="44" cy="96" r="5"/><circle cx="244" cy="96" r="5"/>
    <circle cx="46" cy="152" r="5"/><circle cx="240" cy="152" r="5"/>
    <circle cx="50" cy="207" r="4"/><circle cx="236" cy="207" r="4"/>
    <circle cx="122" cy="68" r="4"/><circle cx="166" cy="68" r="4"/>
  </g>
</svg>
